<?xml version="1.0" encoding="UTF-8" standalone="no"?>
<svg
   xmlns:dc="http://purl.org/dc/elements/1.1/"
   xmlns:cc="http://creativecommons.org/ns#"
   xmlns:rdf="http://www.w3.org/1999/02/22-rdf-syntax-ns#"
   xmlns:svg="http://www.w3.org/2000/svg"
   xmlns="http://www.w3.org/2000/svg"
   version="1.1"
   id="svg2"
   height="708.66138"
   width="2657.4802">
  <defs
     id="defs4">
    <filter
       color-interpolation-filters="sRGB"
       id="filter4057">
      <feFlood
         result="flood"
         flood-color="rgb(0,0,0)"
         flood-opacity="0.5"
         id="feFlood4059" />
      <feComposite
         result="composite1"
         operator="in"
         in="flood"
         in2="SourceGraphic"
         id="feComposite4061" />
      <feOffset
         result="offset"
         dy="20"
         dx="40"
         id="feOffset4063" />
      <feComposite
         result="fbSourceGraphic"
         operator="over"
         in="SourceGraphic"
         in2="offset"
         id="feComposite4065" />
      <feColorMatrix
         id="feColorMatrix4067"
         values="0 0 0 -1 0 0 0 0 -1 0 0 0 0 -1 0 0 0 0 1 0"
         in="fbSourceGraphic"
         result="fbSourceGraphicAlpha" />
      <feFlood
         in="fbSourceGraphic"
         result="flood"
         flood-color="rgb(0,0,0)"
         flood-opacity="0.5"
         id="feFlood4069" />
      <feComposite
         result="composite1"
         operator="in"
         in="flood"
         in2="fbSourceGraphic"
         id="feComposite4071" />
      <feOffset
         result="offset"
         dy="20"
         dx="40"
         id="feOffset4073" />
      <feComposite
         result="composite2"
         operator="over"
         in="fbSourceGraphic"
         in2="offset"
         id="feComposite4075" />
    </filter>
  </defs>
  <metadata
     id="metadata7">
    <rdf:RDF>
      <cc:Work
         rdf:about="">
        <dc:format>image/svg+xml</dc:format>
        <dc:type
           rdf:resource="http://purl.org/dc/dcmitype/StillImage" />
        <dc:title></dc:title>
      </cc:Work>
    </rdf:RDF>
  </metadata>
  <g
     transform="translate(0,-343.69946)"
     id="layer1">
    <g
       id="g2993">
      <g
         transform="matrix(0.95371695,-0.3007058,0.3007058,0.95371695,-272.7169,183.74533)"
         id="g3975">
        <path
           id="path3159"
           d="m 549.66722,341.02595 c -7.81041,-2.46261 -15.637,-4.6472 -23.47936,-6.54742 l -28.26623,112.73125 214.34077,1.12665 C 670.60346,399.68129 615.26721,361.70953 549.66722,341.02595 z m -67.5524,-14.31147 c -35.11454,-3.93352 -70.03758,-2.46748 -103.73033,3.80126 l 27.4943,58.08215 76.23603,-61.88341 z M 746.66557,496.04753 531.35583,597.79134 640.11575,731.69397 472.74712,689.76096 510.04014,1027.0192 C 633.74793,1003.2011 740.79749,914.07347 781.31892,785.55592 813.14493,684.61671 797.35486,580.10748 746.66557,496.04753 z M 255.45202,378.24624 c -15.57159,9.69217 -30.37997,20.61972 -44.33065,32.65501 l 44.10586,11.05439 0.22479,-43.7094 z m -96.75016,88.92794 c -19.4605,26.1153 -35.5917,55.28147 -47.51964,87.1235 l 85.43631,-40.3724 -37.91667,-46.7511 z m 71.35083,197.33265 -141.230717,-0.82092 c -6.788766,156.29949 91.342357,303.88844 247.746637,353.20249 30.07903,9.4841 60.46186,14.6823 90.54378,16.0703 L 322.09556,723.11873 188.18153,831.70238 230.05269,664.50683 z"
           style="fill:#aa0000;fill-opacity:1" />
        <g
           id="flowRoot3181"
           style="font-size:40px;font-style:normal;font-variant:normal;font-weight:500;font-stretch:normal;line-height:125%;letter-spacing:0px;word-spacing:0px;fill:#000000;fill-opacity:1;stroke:none;font-family:KacstBook;-inkscape-font-specification:KacstBook Medium"
           transform="matrix(0.95371695,0.3007058,-0.3007058,0.95371695,231.6321,202.09134)">
          <path
             id="path3009"
             style="font-size:600px;font-weight:bold;text-align:start;line-height:125%;writing-mode:lr-tb;text-anchor:start;font-family:NanumGothic;-inkscape-font-specification:NanumGothic Bold"
             d="m 855.95,630 c -4.80006,-3e-5 -7.20005,-2.00003 -7.2,-6 l 0,-438 c -5e-5,-5.59958 2.39994,-8.39958 7.2,-8.4 l 103.8,0 c 45.5998,4.2e-4 80.9998,9.40041 106.2,28.2 25.5997,18.80038 38.3997,47.60035 38.4,86.4 -3e-4,24.00028 -5.0003,44.60026 -15,61.8 -9.6003,16.80023 -23.4003,30.00022 -41.4,39.6 11.5997,4.4002 21.5997,10.2002 30,17.4 8.7997,7.20018 15.9997,15.40017 21.6,24.6 5.9997,9.20016 10.3997,19.00015 13.2,29.4 2.7997,10.00012 4.1997,20.00011 4.2,30 -3e-4,45.20006 -14.8003,79.00003 -44.4,101.4 -29.6002,22.39998 -72.4002,33.59997 -128.4,33.6 l -88.2,0 m 61.2,-388.8 0,121.8 32.4,0 c 31.59981,2.4e-4 53.9998,-5.99976 67.2,-18 13.1998,-12.39973 19.7998,-28.19972 19.8,-47.4 -2e-4,-16.79968 -5.8002,-30.39967 -17.4,-40.8 -11.6002,-10.39965 -31.40019,-15.59964 -59.4,-15.6 l -42.6,0 m -1.2,186.6 0,138 29.4,0 c 38.39981,3e-5 65.1998,-5.99996 80.4,-18 15.5998,-12.39994 23.3997,-29.19992 23.4,-50.4 -3e-4,-21.59988 -8.4002,-38.59986 -25.2,-51 -16.8002,-12.39983 -45.20018,-18.59983 -85.2,-18.6 l -22.8,0" />
          <path
             id="path3011"
             style="font-size:600px;font-weight:bold;text-align:start;line-height:125%;writing-mode:lr-tb;text-anchor:start;font-family:NanumGothic;-inkscape-font-specification:NanumGothic Bold"
             d="m 1389.0313,629.4 c -2.8003,-3e-5 -4.6003,-0.40003 -5.4,-1.2 -0.8003,-0.40003 -1.2003,-1.80003 -1.2,-4.2 l 0,-27 c -10.0003,13.99999 -22.8003,24.39998 -38.4,31.2 -15.2002,7.19996 -30.6002,10.79996 -46.2,10.8 -16.4002,-4e-5 -31.6002,-2.20004 -45.6,-6.6 -13.6001,-4.40003 -25.4001,-11.00002 -35.4,-19.8 -9.6001,-8.8 -17.2001,-19.59999 -22.8,-32.4 -5.6001,-13.19997 -8.4001,-28.39995 -8.4,-45.6 -10e-5,-20.39991 3.5999,-38.1999 10.8,-53.4 7.1999,-15.59987 18.3999,-28.39985 33.6,-38.4 15.5999,-10.39983 35.3998,-17.99982 59.4,-22.8 23.9998,-5.19981 52.9998,-7.79981 87,-7.8 -3e-4,-7.5998 -0.8003,-15.1998 -2.4,-22.8 -1.6003,-7.59978 -4.4003,-14.39978 -8.4,-20.4 -3.6003,-5.99976 -8.8002,-10.79976 -15.6,-14.4 -6.8002,-3.99975 -15.4002,-5.99975 -25.8,-6 -18.0002,2.5e-4 -34.4002,2.40025 -49.2,7.2 -14.4002,4.80024 -28.0001,11.20023 -40.8,19.2 -6.4001,4.00022 -10.8001,5.80022 -13.2,5.4 -2.0001,-0.39978 -3.0001,-2.59978 -3,-6.6 l 0,-45.6 c -1e-4,-1.59973 -0.2001,-3.19973 -0.6,-4.8 -10e-5,-1.99972 0.3999,-3.59972 1.2,-4.8 1.1999,-1.59972 4.1999,-3.79971 9,-6.6 13.5999,-6.79971 27.3999,-12.3997 41.4,-16.8 14.3998,-4.39969 32.3998,-6.59969 54,-6.6 40.3997,3.1e-4 70.1997,9.8003 89.4,29.4 19.5997,19.60026 29.3997,50.40023 29.4,92.4 l 0,142.2 c -3e-4,11.20004 -3e-4,23.00002 0,35.4 0.3997,12 1.1997,22.59999 2.4,31.8 0.7997,6.39997 -1.4003,9.59997 -6.6,9.6 l -48.6,0 m -10.8,-160.2 c -44.4002,1.3e-4 -76.2002,5.40013 -95.4,16.2 -19.2002,10.8001 -28.8001,27.00009 -28.8,48.6 -1e-4,15.20005 4.3998,26.60004 13.2,34.2 8.7998,7.60002 20.5998,11.40002 35.4,11.4 22.7998,2e-5 40.9998,-8.39997 54.6,-25.2 13.9997,-16.79994 20.9997,-42.99991 21,-78.6 l 0,-6.6" />
          <path
             id="path3013"
             style="font-size:600px;font-weight:bold;text-align:start;line-height:125%;writing-mode:lr-tb;text-anchor:start;font-family:NanumGothic;-inkscape-font-specification:NanumGothic Bold"
             d="m 1535.9844,630.6 c -4.4001,-3e-5 -6.6001,-2.40003 -6.6,-7.2 l 0,-472.8 c -10e-5,-1.99955 0.5999,-3.59955 1.8,-4.8 1.5999,-1.59954 3.3999,-2.39954 5.4,-2.4 l 50.4,0 c 1.9999,4.6e-4 3.5999,0.80046 4.8,2.4 1.5999,1.20045 2.3999,2.80045 2.4,4.8 l 0,472.8 c -1e-4,1.99997 -0.8001,3.59997 -2.4,4.8 -1.2001,1.59997 -2.8001,2.39997 -4.8,2.4 l -51,0" />
          <path
             id="path3015"
             style="font-size:600px;font-weight:bold;text-align:start;line-height:125%;writing-mode:lr-tb;text-anchor:start;font-family:NanumGothic;-inkscape-font-specification:NanumGothic Bold"
             d="m 1827.0969,617.4 c -21.6002,14.39997 -47.2002,21.59996 -76.8,21.6 -8.0001,-4e-5 -16.4001,-0.40004 -25.2,-1.2 -8.8001,-0.80004 -17.4001,-1.80004 -25.8,-3 -8.0001,-1.20003 -15.2001,-2.60003 -21.6,-4.2 -6.4001,-1.60003 -11.4001,-3.20003 -15,-4.8 -1.6001,-0.80003 -3.4001,-2.00002 -5.4,-3.6 -1.6001,-1.20002 -2.2,-3.40002 -1.8,-6.6 l 3.6,-39 c 0.3999,-3.99997 0.9999,-6.39997 1.8,-7.2 0.7999,-0.79997 3.3999,-0.59997 7.8,0.6 13.1999,4.00003 26.7999,7.00002 40.8,9 14.3999,1.60002 27.1999,2.40002 38.4,2.4 17.5998,2e-5 30.5998,-4.39998 39,-13.2 8.7998,-8.79996 13.1998,-18.99995 13.2,-30.6 -2e-4,-6.39993 -2.2002,-12.79992 -6.6,-19.2 -4.4002,-6.79991 -11.8002,-13.5999 -22.2,-20.4 -10.8002,-6.39989 -22.0001,-12.79989 -33.6,-19.2 -11.6001,-6.79987 -23.0001,-13.39987 -34.2,-19.8 -12.8001,-7.59985 -23.6001,-17.59984 -32.4,-30 -8.4001,-12.79982 -12.6001,-26.7998 -12.6,-42 -1e-4,-16.79977 2.9999,-31.19976 9,-43.2 5.9999,-12.39973 13.9999,-22.59972 24,-30.6 9.9999,-8.3997 21.3999,-14.3997 34.2,-18 13.1999,-3.99969 26.9999,-5.99969 41.4,-6 7.5998,3.1e-4 15.3998,0.40031 23.4,1.2 8.3998,0.80031 16.3998,2.00031 24,3.6 7.9998,1.2003 14.9998,2.8003 21,4.8 6.3998,1.6003 11.1998,3.4003 14.4,5.4 1.9998,1.20029 2.9998,2.40029 3,3.6 0.3998,0.80029 0.3998,2.20029 0,4.2 l -3.6,38.4 c -0.4002,4.40025 -1.4002,7.00024 -3,7.8 -1.6002,0.40024 -4.6002,0.20024 -9,-0.6 -7.6002,-2.79975 -16.2002,-5.39975 -25.8,-7.8 -5.6002,-0.79975 -11.6002,-1.59975 -18,-2.4 -6.0002,-0.79975 -13.6002,-1.19975 -22.8,-1.2 -16.4001,2.5e-4 -28.0001,3.80025 -34.8,11.4 -6.8001,7.60023 -10.2001,16.80023 -10.2,27.6 -10e-5,6.40021 3.7999,13.2002 11.4,20.4 7.5999,7.20019 17.1999,13.80018 28.8,19.8 12.3998,6.00017 23.7998,12.20016 34.2,18.6 10.7998,6.40015 18.7998,11.60014 24,15.6 14.3998,10.40013 25.1998,21.80012 32.4,34.2 7.1997,12.00009 10.7997,26.60008 10.8,43.8 -3e-4,33.60003 -13.4002,60.2 -40.2,79.8" />
          <path
             id="path3017"
             style="font-size:600px;font-weight:bold;text-align:start;line-height:125%;writing-mode:lr-tb;text-anchor:start;font-family:NanumGothic;-inkscape-font-specification:NanumGothic Bold"
             d="m 2098.1938,624.6 c -5.6003,3.59997 -14.6002,6.79997 -27,9.6 -12.0002,3.19996 -25.0002,4.79996 -39,4.8 -16.8002,-4e-5 -30.2002,-3.60004 -40.2,-10.8 -10.0001,-6.80002 -17.4001,-14.80001 -22.2,-24 -5.6001,-10.39999 -9.0001,-22.59998 -10.2,-36.6 -1.2001,-13.99995 -1.8001,-32.99993 -1.8,-57 l 0,-150.6 -49.8,0 c -2.0001,2.4e-4 -3.8001,-0.59976 -5.4,-1.8 -1.2001,-1.59976 -1.8001,-3.39975 -1.8,-5.4 l 0,-47.4 c -10e-5,-1.9997 0.5999,-3.5997 1.8,-4.8 1.5999,-1.5997 3.3999,-2.3997 5.4,-2.4 l 49.8,0 0,-84 c -10e-5,-1.99961 0.7999,-3.59961 2.4,-4.8 1.5999,-1.59961 3.3999,-2.39961 5.4,-2.4 l 48.6,0 c 2.3998,3.9e-4 4.1998,0.80039 5.4,2.4 1.5998,1.20039 2.3998,2.80039 2.4,4.8 l 0,84 57.6,0 c 1.9998,3e-4 3.5998,0.8003 4.8,2.4 1.5997,1.2003 2.3997,2.8003 2.3999,4.8 l 0,47.4 c -2e-4,2.00025 -0.8002,3.80024 -2.3999,5.4 -1.2002,1.20024 -2.8002,1.80024 -4.8,1.8 l -57.6,0 0,154.8 c -2e-4,27.20006 0.5998,44.40004 1.8,51.6 1.5998,7.20003 5.3998,11.60002 11.4,13.2 5.9998,1.60002 12.7998,2.00002 20.4,1.2 5.1998,-0.79998 10.9998,-1.79998 17.4,-3 6.3998,-1.59998 11.9997,-3.39997 16.7999,-5.4 1.9998,-0.79997 3.3998,-0.79997 4.2001,0 0.7997,0.40003 1.5997,2.20003 2.4,5.4 l 4.8,39.6 c 0.3997,2.79998 -0.6003,5.19998 -3,7.2" />
          <path
             id="path3019"
             style="font-size:600px;font-weight:bold;text-align:start;line-height:125%;writing-mode:lr-tb;text-anchor:start;font-family:NanumGothic;-inkscape-font-specification:NanumGothic Bold"
             d="m 2333.5625,629.4 c -2.8002,-3e-5 -4.6002,-0.40003 -5.4,-1.2 -0.8002,-0.40003 -1.2002,-1.80003 -1.2,-4.2 l 0,-27 c -10.0002,13.99999 -22.8002,24.39998 -38.4,31.2 -15.2002,7.19996 -30.6002,10.79996 -46.2,10.8 -16.4001,-4e-5 -31.6001,-2.20004 -45.6,-6.6 -13.6001,-4.40003 -25.4001,-11.00002 -35.4,-19.8 -9.6,-8.8 -17.2,-19.59999 -22.8,-32.4 -5.6,-13.19997 -8.4,-28.39995 -8.4,-45.6 0,-20.39991 3.6,-38.1999 10.8,-53.4 7.2,-15.59987 18.3999,-28.39985 33.6,-38.4 15.5999,-10.39983 35.3999,-17.99982 59.4,-22.8 23.9998,-5.19981 52.9998,-7.79981 87,-7.8 -2e-4,-7.5998 -0.8002,-15.1998 -2.4,-22.8 -1.6002,-7.59978 -4.4002,-14.39978 -8.4,-20.4 -3.6002,-5.99976 -8.8002,-10.79976 -15.6,-14.4 -6.8002,-3.99975 -15.4002,-5.99975 -25.8,-6 -18.0001,2.5e-4 -34.4001,2.40025 -49.2,7.2 -14.4001,4.80024 -28.0001,11.20023 -40.8,19.2 -6.4001,4.00022 -10.8001,5.80022 -13.2,5.4 -2.0001,-0.39978 -3.0001,-2.59978 -3,-6.6 l 0,-45.6 c -1e-4,-1.59973 -0.2001,-3.19973 -0.6,-4.8 -1e-4,-1.99972 0.3999,-3.59972 1.2,-4.8 1.1999,-1.59972 4.1999,-3.79971 9,-6.6 13.5999,-6.79971 27.3999,-12.3997 41.4,-16.8 14.3999,-4.39969 32.3999,-6.59969 54,-6.6 40.3998,3.1e-4 70.1998,9.8003 89.4,29.4 19.5997,19.60026 29.3997,50.40023 29.4,92.4 l 0,142.2 c -3e-4,11.20004 -3e-4,23.00002 0,35.4 0.3997,12 1.1997,22.59999 2.4,31.8 0.7997,6.39997 -1.4003,9.59997 -6.6,9.6 l -48.6,0 m -10.8,-160.2 c -44.4002,1.3e-4 -76.2001,5.40013 -95.4,16.2 -19.2001,10.8001 -28.8001,27.00009 -28.8,48.6 -1e-4,15.20005 4.3999,26.60004 13.2,34.2 8.7999,7.60002 20.5999,11.40002 35.4,11.4 22.7998,2e-5 40.9998,-8.39997 54.6,-25.2 13.9998,-16.79994 20.9998,-42.99991 21,-78.6 l 0,-6.6" />
          <path
             id="path3021"
             style="font-size:600px;font-weight:bold;text-align:start;line-height:125%;writing-mode:lr-tb;text-anchor:start;font-family:NanumGothic;-inkscape-font-specification:NanumGothic Bold"
             d="m 2639.5156,358.2 c -8.0002,-1.99976 -15.0002,-3.19976 -21,-3.6 -6.0002,-0.79975 -11.2002,-0.79975 -15.6,0 -12.0001,2.40024 -21.8001,7.60024 -29.4,15.6 -7.2001,7.60022 -12.8001,16.60021 -16.8,27 -3.6001,10.40019 -6.0001,21.60018 -7.2,33.6 -1.2001,12.00016 -1.8001,23.40015 -1.8,34.2 l 0,156 c -1e-4,5.59997 -2.4001,8.39997 -7.2,8.4 l -49.8,0 c -4.4,-3e-5 -6.6,-3.00003 -6.6,-9 l 0,-241.8 c 0,-12.79977 -0.2,-25.59975 -0.6,-38.4 -0.4,-12.79973 -0.6,-23.99972 -0.6,-33.6 0,-3.5997 0.6,-5.7997 1.8,-6.6 1.2,-1.1997 3.2,-1.7997 6,-1.8 l 49.8,0 c 2.7999,3e-4 4.3999,0.4003 4.8,1.2 0.3999,0.8003 0.5999,2.2003 0.6,4.2 l 0,26.4 c 2.7999,-4.79973 6.3999,-9.59972 10.8,-14.4 4.7999,-4.79971 9.7999,-8.99971 15,-12.6 5.5999,-3.9997 11.1999,-6.9997 16.8,-9 5.5999,-2.39969 10.7999,-3.59969 15.6,-3.6 7.5998,3.1e-4 14.3998,0.20031 20.4,0.6 6.3998,3.1e-4 12.9998,2.00031 19.8,6 1.9998,0.8003 3.1998,2.2003 3.6,4.2 0.3998,1.6003 0.5998,3.2003 0.6,4.8 l 0,45 c -2e-4,1.60025 -0.6002,3.40025 -1.8,5.4 -1.2002,2.00024 -3.6002,2.60024 -7.2,1.8" />
        </g>
      </g>
    </g>
  </g>
</svg>
